<svg xmlns="http://www.w3.org/2000/svg" width="60" height="60" viewBox="0 0 60 60">
  <defs>
    <linearGradient id="sb-icon-11-a" x1="32.169%" x2="67.911%" y1="49.861%" y2="49.861%">
      <stop offset="0%" stop-color="#4F2051"/>
      <stop offset="100%" stop-color="#7A113F"/>
    </linearGradient>
  </defs>
  <path fill="url(#sb-icon-11-a)" d="M34.7681251,16.033125 C35.4562501,16.68 35.7993751,17.45625 35.7993751,18.361875 C35.7993751,19.27125 35.4562501,20.045625 34.7681251,20.683125 C34.0999015,21.3160596 33.2096002,21.6608662 32.2893751,21.643125 C31.3181251,21.643125 30.4893751,21.3225 29.795625,20.683125 C29.10375,20.04375 28.755,19.269375 28.755,18.361875 C28.755,17.454375 29.101875,16.678125 29.795625,16.033125 C30.4675885,15.395689 31.3633325,15.0481672 32.2893751,15.065625 C33.2568751,15.065625 34.0837501,15.39 34.7681251,16.033125 L34.7681251,16.033125 Z M33.2231251,40.7662501 C32.4600001,40.7662501 31.9237501,40.6406251 31.6125001,40.3893751 C31.3031251,40.1381251 31.1493751,39.6637501 31.1493751,38.9737501 C31.1493751,38.7000001 31.1962501,38.2893751 31.2937501,37.7550001 C31.3893751,37.2168751 31.4962501,36.7368751 31.6181251,36.3187501 L33.0900001,31.1043751 C33.2343751,30.6262501 33.3337501,30.0993751 33.3862501,29.5275 C33.4406251,28.95375 33.4650001,28.554375 33.4650001,28.325625 C33.4650001,27.226875 33.0806251,26.334375 32.3100001,25.64625 C31.5393751,24.958125 30.4425001,24.615 29.019375,24.615 C28.22625,24.615 27.391875,24.755625 26.505,25.036875 C25.5646464,25.3361414 24.6369887,25.6739264 23.724375,26.049375 L23.32875,27.66375 C23.6175,27.556875 23.960625,27.440625 24.36375,27.3225 C24.763125,27.204375 25.156875,27.144375 25.5375,27.144375 C26.319375,27.144375 26.844375,27.2775 27.12,27.538125 C27.395625,27.8025 27.534375,28.269375 27.534375,28.936875 C27.534375,29.30625 27.489375,29.716875 27.399375,30.1631251 C27.309375,30.6112501 27.19875,31.0875001 27.065625,31.5881251 L25.588125,36.8231251 C25.456875,37.3725001 25.36125,37.8656251 25.299375,38.3006251 C25.2408071,38.7256172 25.2113634,39.1541163 25.21125,39.5831251 C25.21125,40.6575001 25.60875,41.5443751 26.40375,42.2456251 C27.196875,42.9431251 28.3125,43.2937501 29.745,43.2937501 C30.6768751,43.2937501 31.4962501,43.1718751 32.2012501,42.9262501 C32.9062501,42.6806251 33.8512501,42.3262501 35.0343751,41.8593751 L35.4281251,40.2468751 C35.1085855,40.3809958 34.7795629,40.4912966 34.4437501,40.5768751 C33.9881251,40.7025001 33.5812501,40.7662501 33.2231251,40.7662501 L33.2231251,40.7662501 Z M60,30 C60,46.5412501 46.5412501,60 30,60 C13.45875,60 0,46.5412501 0,30 C0,13.45875 13.45875,0 30,0 C46.5412501,0 60,13.45875 60,30 Z M56.8762501,30.0000001 C56.8762501,15.18 44.8218751,3.12375001 30.0000001,3.12375001 C15.178125,3.12375001 3.12375001,15.18 3.12375001,30.0000001 C3.12375001,44.8200001 15.18,56.8762501 30.0000001,56.8762501 C44.8200001,56.8762501 56.8762501,44.8200001 56.8762501,30.0000001 Z"/>
</svg>
